{
  "asset": {
    "version": "2.0",
    "generator": "3dpea GLTFExporter"
  },
  "scenes": [
    {
      "name": "AuxScene",
      "nodes": [
        7
      ]
    }
  ],
  "scene": 0,
  "nodes": [
    {
      "name": "ECM-E3M-E21310RSE_00__SW0001",
      "mesh": 0
    },
    {
      "name": "ECM-E3M-E21310RSE_00__SW0001",
      "children": [
        0
      ]
    },
    {
      "name": "MS3102A18-10P_2_1",
      "mesh": 1
    },
    {
      "name": "MS3102A18-10P_2_2",
      "mesh": 2
    },
    {
      "name": "SHELL",
      "mesh": 3
    },
    {
      "name": "MS3102A18-10P_2_ASM",
      "children": [
        2,
        3,
        4
      ]
    },
    {
      "name": "ECM-E3M-EX1310RSE_ASM",
      "children": [
        1,
        5
      ]
    },
    {
      "name": "ecm-e3h-fx1308rse_asm",
      "children": [
        6
      ]
    }
  ],
  "bufferViews": [
    {
      "buffer": 0,
      "byteOffset": 0,
      "byteLength": 646044,
      "target": 34962,
      "byteStride": 12
    },
    {
      "buffer": 0,
      "byteOffset": 646044,
      "byteLength": 646044,
      "target": 34962,
      "byteStride": 12
    },
    {
      "buffer": 0,
      "byteOffset": 1292088,
      "byteLength": 359888,
      "target": 34963
    },
    {
      "buffer": 0,
      "byteOffset": 1651976,
      "byteLength": 104016,
      "target": 34962,
      "byteStride": 12
    },
    {
      "buffer": 0,
      "byteOffset": 1755992,
      "byteLength": 104016,
      "target": 34962,
      "byteStride": 12
    },
    {
      "buffer": 0,
      "byteOffset": 1860008,
      "byteLength": 52752,
      "target": 34963
    },
    {
      "buffer": 0,
      "byteOffset": 1912760,
      "byteLength": 8304,
      "target": 34962,
      "byteStride": 12
    },
    {
      "buffer": 0,
      "byteOffset": 1921064,
      "byteLength": 8304,
      "target": 34962,
      "byteStride": 12
    },
    {
      "buffer": 0,
      "byteOffset": 1929368,
      "byteLength": 4032,
      "target": 34963
    },
    {
      "buffer": 0,
      "byteOffset": 1933400,
      "byteLength": 62256,
      "target": 34962,
      "byteStride": 12
    },
    {
      "buffer": 0,
      "byteOffset": 1995656,
      "byteLength": 62256,
      "target": 34962,
      "byteStride": 12
    },
    {
      "buffer": 0,
      "byteOffset": 2057912,
      "byteLength": 34232,
      "target": 34963
    }
  ],
  "buffers": [
    {
      "byteLength": 2092144,
      "uri": "data:application/octet-stream;base64,"
    }
  ],
  "accessors": [
    {
      "bufferView": 0,
      "componentType": 5126,
      "count": 53837,
      "max": [
        65,
        111.9000015258789,
        116.5
      ],
      "min": [
        -65,
        -65,
        -66.4000015258789
      ],
      "type": "VEC3"
    },
    {
      "bufferView": 1,
      "componentType": 5126,
      "count": 53837,
      "max": [
        1,
        1,
        1
      ],
      "min": [
        -1,
        -1,
        -1
      ],
      "type": "VEC3"
    },
    {
      "bufferView": 2,
      "componentType": 5123,
      "count": 179943,
      "max": [
        53836
      ],
      "min": [
        0
      ],
      "type": "SCALAR"
    },
    {
      "bufferView": 3,
      "componentType": 5126,
      "count": 8668,
      "max": [
        10.933481216430664,
        111.9000015258789,
        -7.785006999969482
      ],
      "min": [
        -10.963860511779785,
        74.4000015258789,
        -29.65289878845215
      ],
      "type": "VEC3"
    },
    {
      "bufferView": 4,
      "componentType": 5126,
      "count": 8668,
      "max": [
        0.9999994039535522,
        1,
        0.9999994039535522
      ],
      "min": [
        -0.9999994039535522,
        -1,
        -0.9999994039535522
      ],
      "type": "VEC3"
    },
    {
      "bufferView": 5,
      "componentType": 5123,
      "count": 26376,
      "max": [
        8667
      ],
      "min": [
        0
      ],
      "type": "SCALAR"
    },
    {
      "bufferView": 6,
      "componentType": 5126,
      "count": 692,
      "max": [
        17.2500057220459,
        91,
        -1.4699939489364624
      ],
      "min": [
        -17.280006408691406,
        89.5,
        -36.00000762939453
      ],
      "type": "VEC3"
    },
    {
      "bufferView": 7,
      "componentType": 5126,
      "count": 692,
      "max": [
        0.9999994039535522,
        1,
        0.9999994039535522
      ],
      "min": [
        -0.9999994039535522,
        -1,
        -0.9999994039535522
      ],
      "type": "VEC3"
    },
    {
      "bufferView": 8,
      "componentType": 5123,
      "count": 2016,
      "max": [
        691
      ],
      "min": [
        0
      ],
      "type": "SCALAR"
    },
    {
      "bufferView": 9,
      "componentType": 5126,
      "count": 5188,
      "max": [
        17.2500057220459,
        113.9000015258789,
        -1.4699939489364624
      ],
      "min": [
        -17.280006408691406,
        79.9000015258789,
        -36.00000762939453
      ],
      "type": "VEC3"
    },
    {
      "bufferView": 10,
      "componentType": 5126,
      "count": 5188,
      "max": [
        0.9999994039535522,
        1,
        0.9999994039535522
      ],
      "min": [
        -0.9999994039535522,
        -1,
        -0.9999994039535522
      ],
      "type": "VEC3"
    },
    {
      "bufferView": 11,
      "componentType": 5123,
      "count": 17115,
      "max": [
        5187
      ],
      "min": [
        0
      ],
      "type": "SCALAR"
    }
  ],
  "materials": [
    {
      "pbrMetallicRoughness": {
        "metallicFactor": 0,
        "roughnessFactor": 0.3
      },
      "doubleSided": true,
      "name": "Mat_1"
    },
    {
      "pbrMetallicRoughness": {
        "metallicFactor": 0,
        "roughnessFactor": 0.3
      },
      "doubleSided": true,
      "name": "Mat_2"
    },
    {
      "pbrMetallicRoughness": {
        "metallicFactor": 0,
        "roughnessFactor": 0.3
      },
      "doubleSided": true,
      "name": "Mat_3"
    },
    {
      "pbrMetallicRoughness": {
        "metallicFactor": 0,
        "roughnessFactor": 0.3
      },
      "doubleSided": true,
      "name": "Mat_4"
    }
  ],
  "meshes": [
    {
      "primitives": [
        {
          "mode": 4,
          "attributes": {
            "POSITION": 0,
            "NORMAL": 1
          },
          "indices": 2,
          "material": 0
        }
      ]
    },
    {
      "primitives": [
        {
          "mode": 4,
          "attributes": {
            "POSITION": 3,
            "NORMAL": 4
          },
          "indices": 5,
          "material": 1
        }
      ]
    },
    {
      "primitives": [
        {
          "mode": 4,
          "attributes": {
            "POSITION": 6,
            "NORMAL": 7
          },
          "indices": 8,
          "material": 2
        }
      ]
    },
    {
      "primitives": [
        {
          "mode": 4,
          "attributes": {
            "POSITION": 9,
            "NORMAL": 10
          },
          "indices": 11,
          "material": 3
        }
      ]
    }
  ]
}